~*~*~*~*~*~*~Lil Wayne-How To Love-Shazam Version 720p (Shy_Rage)~*~*~*~*~*~*~

======================================================
~~~~~~~~~~~~~~~~~~~~~~~~~~~~~~~~~~~~~~~~~~~~~~~~~~~~~~
======================================================
General
Complete name                    : Lil Wayne - How To Love (Shazam Version).MP4
Format                           : MPEG-4
Format profile                   : Base Media / Version 2
Codec ID                         : mp42
File size                        : 45.3 MiB
Duration                         : 5mn 21s
Overall bit rate                 : 1 180 Kbps
Encoded date                     : UTC 2011-08-24 04:44:13
Tagged date                      : UTC 2011-08-24 04:44:13


Video
ID                               : 1
Format                           : AVC
Format/Info                      : Advanced Video Codec
Format profile                   : High@L3.1
Format settings, CABAC           : Yes
Format settings, ReFrames        : 1 frame
Codec ID                         : avc1
Codec ID/Info                    : Advanced Video Coding
Duration                         : 5mn 21s
Bit rate                         : 1 028 Kbps
Maximum bit rate                 : 2 056 Kbps
Width                            : 1 280 pixels
Height                           : 720 pixels
Display aspect ratio             : 16:9
Frame rate mode                  : Variable
Frame rate                       : 23.976 fps
Minimum frame rate               : 23.810 fps
Maximum frame rate               : 24.390 fps
Color space                      : YUV
Chroma subsampling               : 4:2:0
Bit depth                        : 8 bits
Scan type                        : Progressive
Bits/(Pixel*Frame)               : 0.047
Stream size                      : 39.4 MiB (87%)
Tagged date                      : UTC 2011-08-24 04:44:14

Audio
ID                               : 2
Format                           : AAC
Format/Info                      : Advanced Audio Codec
Format profile                   : LC
Codec ID                         : 40
Duration                         : 5mn 21s
Bit rate mode                    : Variable
Bit rate                         : 144 Kbps
Maximum bit rate                 : 181 Kbps
Channel(s)                       : 2 channels
Channel positions                : Front: L R
Sampling rate                    : 44.1 KHz
Compression mode                 : Lossy
Stream size                      : 5.62 MiB (12%)
Title                            : IsoMedia File Produced by Google, 5-11-2011
Encoded date                     : UTC 2011-08-24 04:44:14
Tagged date                      : UTC 2011-08-24 04:44:14

======================================================
~~~~~~~~~~~~~~~~~~~~~~~~~~~~~~~~~~~~~~~~~~~~~~~~~~~~~~
======================================================

Please Seed After Downloading!! Rate My Torrents!!